HIERARCHY
ROOT simHips
{
  OFFSET -68.3785 100.059 260.003
  CHANNELS 6 Xposition Yposition Zposition Zrotation Xrotation Yrotation
  JOINT simSpine
  {
    OFFSET -0.000354287 21.3001 -0.0169239
    CHANNELS 3 Zrotation Xrotation Yrotation
    JOINT simLeftArm
    {
      OFFSET 13.5181 21.3012 0
      CHANNELS 3 Zrotation Xrotation Yrotation
      JOINT simLeftForeArm
      {
        OFFSET 24.5783 0 1.00687e-005
        CHANNELS 3 Zrotation Xrotation Yrotation
        JOINT simLeftHand
        {
          OFFSET 24.5783 0 0
          CHANNELS 3 Zrotation Xrotation Yrotation
          End Site
          {
            OFFSET 7.32568 1.52588e-005 0.0169305
          }
        }
      }
    }
    JOINT simHead
    {
      OFFSET 0 27.4458 -0.004888
      CHANNELS 3 Zrotation Xrotation Yrotation
      End Site
      {
        OFFSET 0 0 0
      }
    }
    JOINT simRightArm
    {
      OFFSET -13.5174 21.3012 0
      CHANNELS 3 Zrotation Xrotation Yrotation
      JOINT simRightForeArm
      {
        OFFSET -24.5783 -3.50495e-005 0
        CHANNELS 3 Zrotation Xrotation Yrotation
        JOINT simRightHand
        {
          OFFSET -24.5783 -1.48483e-005 0
          CHANNELS 3 Zrotation Xrotation Yrotation
          End Site
          {
            OFFSET -7.32568 1.52588e-005 0.0169305
          }
        }
      }
    }
  }
  JOINT simRightUpLeg
  {
    OFFSET -8.44614 -9.41038 0.835685
    CHANNELS 3 Zrotation Xrotation Yrotation
    JOINT simRightLeg
    {
      OFFSET 9.38052e-005 -40.9639 0.000210361
      CHANNELS 3 Zrotation Xrotation Yrotation
      JOINT simRightFoot
      {
        OFFSET 0 -40.9639 0
        CHANNELS 3 Zrotation Xrotation Yrotation
        End Site
        {
          OFFSET 0.50614 -9.67405 14.6709
        }
      }
    }
  }
  JOINT simLeftUpLeg
  {
    OFFSET 8.44614 -9.41038 0.835688
    CHANNELS 3 Zrotation Xrotation Yrotation
    JOINT simLeftLeg
    {
      OFFSET 0 -40.9639 0
      CHANNELS 3 Zrotation Xrotation Yrotation
      JOINT simLeftFoot
      {
        OFFSET 0 -40.9639 0
        CHANNELS 3 Zrotation Xrotation Yrotation
        End Site
        {
          OFFSET -0.50614 -9.67405 14.6709
        }
      }
    }
  }
}
MOTION
Frames:	22
Frame Time:	0.0333333
9.97445 96.6178 6.63509 -0.439492 -0.523179 -12.9661 -0.136851 5.92685 -0.175688 -82.5427 52.3818 4.1617 -70.8119 -31.2128 -94.2269 1.36142 -0.692893 5.46331 -3.05187 -0.0901092 13.4416 108.032 69.5619 -36.2463 -34.0146 -41.415 82.0306 10.5375 -9.48796 -9.22152 -10.0635 -7.67901 -4.71992 2.01886 24.0593 -21.1041 11.9896 -8.84345 0.354613 11.88 -18.5029 18.7743 1.5417 19.0325 -6.56108 -6.23864 4.81424 0.536265 
10.3703 96.0637 6.46431 -0.210427 -2.47664 -17.6582 -0.592563 6.41139 -1.25891 -82.5144 54.7322 9.24426 -74.7454 -25.7066 -99.4753 4.06272 0.339203 3.91797 -7.23022 5.8137 17.5964 93.0066 79.6014 -22.7938 -29.6099 -39.7807 82.2096 9.92999 -9.17659 -9.28666 -11.3519 -9.02233 -3.47116 1.93263 27.8935 -17.2295 12.223 -10.0861 0.483108 12.6125 -17.4161 21.4471 1.41249 23.3732 -3.82263 -5.66352 2.25981 0.380212 
11.0066 95.5005 6.77505 -0.0755749 -5.03292 -24.7586 -1.48771 6.23194 -4.26492 -85.9868 60.5652 19.2932 -76.9868 -20.4896 -107.144 6.43374 1.30057 2.42874 -13.0626 12.5896 23.44 -3.41233 81.1317 71.8291 -21.4004 -36.8417 82.4391 10.6051 -9.00694 -7.58462 -13.7145 -10.5888 -4.05133 1.48831 31.9238 -9.71156 11.8938 -11.0874 0.566697 12.9163 -14.4983 24.6448 1.16558 27.0046 0.125328 -6.07 -0.0479794 0.307228 
11.903 94.8306 7.68471 -0.79816 -8.36111 -33.5568 -2.33884 5.50298 -9.01486 -96.689 69.3868 38.0327 -76.6125 -18.3764 -114.471 4.46044 0.838869 -0.0931396 -18.5193 17.4842 28.7418 -16.7681 67.7624 84.8144 -10.878 -30.8521 81.3777 14.2484 -9.36586 -3.05784 -17.1276 -12.3283 -6.83049 0.444117 36.6544 0.788276 11.1577 -11.3582 0.557875 12.4556 -10.2957 27.0509 1.25157 30.847 4.95405 -8.22461 -1.84707 0.31456 
12.2229 94.3186 8.68078 -2.28222 -12.0153 -42.0772 -3.05168 4.97932 -13.1916 -120.81 77.5366 71.2264 -69.3915 -20.4803 -119.251 0.341262 -0.147717 -3.70084 -21.8266 19.3488 30.9679 -9.62161 63.3656 77.7344 -3.01526 -29.0926 84.5854 14.666 -9.99714 -3.29757 -19.6205 -12.7916 -9.73733 -1.56571 39.4953 7.87001 9.07393 -11.3067 0.436212 11.1945 -5.58047 26.9289 0.592143 34.1869 11.1018 -10.8827 -2.42635 0.416101 
12.065 94.1277 9.69756 -4.21342 -15.2121 -48.6979 -3.09162 4.00149 -17.4699 -140.904 83.3312 100.405 -55.7985 -28.1521 -114.924 -6.2722 -1.37198 -9.01093 -22.7325 20.0152 31.4579 -0.250253 60.6927 64.3937 2.31216 -29.1846 89.7144 14.9312 -9.69472 -2.44841 -21.0408 -11.5981 -10.8423 -3.74778 40.2991 12.2687 8.12709 -11.9571 0.415609 9.05985 -0.848659 25.7163 -0.038861 35.5381 16.719 -12.7892 -1.82486 0.626716 
11.4568 94.4795 10.5333 -5.80538 -17.4604 -51.5713 -2.40015 2.09874 -22.2754 30.9405 84.6977 -64.9566 -32.5946 -35.8297 -97.9805 -10.4462 -1.95705 -10.9548 -21.476 20.4641 31.2018 2.60859 56.9236 51.8002 4.56908 -31.2883 94.0472 16.5889 -7.8974 2.61085 -21.1649 -8.2626 -8.89982 -5.15791 38.4117 13.7528 10.0958 -13.3196 0.616517 6.68832 3.21367 24.4379 0.666851 34.1241 19.8598 -14.6688 0.0973343 0.923311 
10.7463 95.1342 10.7992 -7.05396 -18.9783 -50.9539 -1.58425 0.694392 -27.3016 48.4335 71.1281 -78.3599 -18.8031 -33.6499 -83.8103 -11.1317 -2.42281 -8.89877 -17.5852 17.6671 28.9176 9.70843 53.1483 33.2002 10.5129 -33.2236 101.315 18.593 -7.30659 5.52974 -20.5701 -3.6227 -6.23501 -4.82788 35.4208 8.64486 12.0853 -14.2578 0.835169 5.97878 6.7005 24.1393 1.01323 31.2369 19.6332 -14.644 2.4677 1.23563 
10.1007 95.8503 10.5699 -7.68565 -20.0108 -48.8974 -1.05318 -0.238829 -31.2694 47.3649 56.846 -76.5646 -11.9293 -27.8407 -73.538 -12.0996 -3.12423 -6.41773 -12.7219 11.7818 25.9719 18.6247 47.5627 12.4972 17.4561 -33.9946 108.466 21.0797 -7.11236 7.85686 -19.804 0.608988 -4.18071 -4.06154 32.4321 2.37037 13.494 -15.0279 1.02604 6.39847 9.18307 24.447 0.997085 28.2538 16.8584 -13.8555 5.10356 1.53369 
9.75159 96.4345 9.90953 -7.6313 -20.5916 -47.3865 -0.603587 -0.55954 -33.0162 40.6313 45.217 -73.66 -4.41509 -23.0505 -65.5996 -11.6378 -3.3077 -4.74347 -8.74896 3.1007 23.4241 28.035 38.9947 -6.9782 21.8602 -33.86 113.038 24.0261 -6.91612 10.1676 -19.4605 2.63825 -3.79647 -3.5845 30.7378 -0.670521 14.1294 -16.2058 1.22117 7.21449 10.2041 24.9157 0.602915 26.3887 12.7476 -13.2526 7.79678 1.87248 
9.80139 96.8011 8.95353 -6.96968 -20.9508 -46.965 -0.195232 -0.595809 -33.1753 28.0659 35.0978 -68.4167 1.87105 -19.127 -61.3532 -10.7389 -3.31234 -1.96475 -6.77043 -3.40207 21.8811 33.4912 30.1972 -19.8601 25.8273 -32.8859 115.042 27.3542 -6.85458 12.441 -19.7246 2.66775 -3.57597 -3.39636 29.9543 -2.16485 15.0119 -17.2991 1.44481 6.85653 10.0659 23.7761 0.183011 24.9357 12.1073 -13.276 10.3146 2.23864 
10.1046 97.0919 7.69796 -5.75089 -20.8374 -46.972 0.150794 -0.610216 -32.7224 13.4149 26.5894 -65.0318 8.47993 -16.6932 -58.8238 -9.27719 -2.84642 0.562232 -5.89712 -7.48456 21.5227 37.6255 21.5514 -28.0076 28.5139 -32.2649 115.486 30.3259 -7.30246 13.5649 -20.1038 1.0815 -3.98001 -3.4862 29.7397 -2.3551 15.4485 -18.121 1.59857 6.16338 9.03963 22.744 -0.263493 23.3328 12.6347 -13.2235 12.8243 2.56763 
10.5522 97.3894 6.16075 -4.10005 -20.086 -46.9279 0.406849 -0.823349 -32.5002 -0.548431 21.663 -64.369 14.4522 -17.8962 -57.4765 -7.05749 -1.74272 1.76766 -5.48052 -8.78025 22.7124 40.8164 12.5319 -31.1542 29.795 -32.1134 114.647 32.376 -8.54871 12.9402 -20.1925 -1.69457 -5.0437 -3.74616 29.7272 -1.84929 15.1447 -18.3897 1.59829 5.87437 7.38541 23.3148 -0.794234 21.2161 12.6469 -12.9236 15.46 2.8107 
11.2127 97.7288 4.47785 -2.83492 -19.1903 -46.992 0.768877 -0.611425 -32.6051 -8.98466 19.2197 -66.3648 14.6919 -22.9503 -58.636 -4.23042 -0.476409 2.08927 -5.31456 -8.86614 23.9843 44.3544 3.30793 -31.4234 28.3169 -33.2439 111.751 34.6975 -9.50404 12.9805 -20.0838 -4.23525 -5.92566 -3.56257 29.3026 -2.00464 14.8808 -18.2789 1.5584 6.15646 6.24506 24.4347 -1.27605 18.4126 14.0784 -16.7652 17.6037 3.63339 
12.1187 98.0318 2.75931 -1.88387 -18.0398 -47.2727 1.34764 -0.130457 -32.5299 -13.952 18.1506 -69.5996 12.1294 -28.0403 -62.1256 -1.67013 0.56503 2.27918 -5.25111 -8.4016 25.1446 48.8026 -5.49747 -30.7803 26.1318 -34.4301 108.671 36.6464 -10.4695 12.8322 -19.7355 -6.7444 -6.48555 -3.00951 28.6089 -2.71025 14.6259 -18.0663 1.51373 6.73803 5.48503 25.4141 -1.58301 15.5695 17.2428 -23.5672 18.3958 4.74496 
13.1919 98.4338 1.04231 -1.30426 -16.6048 -47.8602 2.24986 0.561521 -31.902 -15.2396 17.8542 -74.1136 10.8899 -30.6203 -65.9238 -0.352247 1.06731 3.62359 -5.02536 -7.91912 25.9962 54.0835 -12.9256 -30.5057 24.7288 -35.3303 106.092 37.7247 -11.439 12.2344 -18.9231 -8.71404 -6.5122 -2.0875 26.7744 -4.07008 14.3114 -17.4618 1.40764 6.53767 4.04862 25.8124 -1.18512 14.5914 20.3655 -20.8866 13.4232 3.35569 
14.3573 98.6255 -0.567062 -1.30353 -15.5243 -49.2153 3.05642 1.49561 -30.9018 -14.7085 17.8247 -78.4101 12.263 -31.0968 -67.6305 -0.885971 0.928515 4.04128 -5.04853 -6.29064 27.5791 59.1972 -18.0638 -29.4387 22.4943 -36.4684 102.515 37.8514 -11.5774 12.17 -17.8157 -10.3873 -5.92556 -1.53013 25.2104 -5.01995 14.0475 -16.9365 1.32399 6.05134 2.27468 24.8112 -0.592127 18.1813 25.257 -17.2238 6.78958 1.82435 
15.5719 98.7441 -2.12295 -1.58588 -14.6005 -51.0237 3.7571 2.44309 -29.8652 -12.6485 18.0265 -81.7435 14.0875 -30.2614 -68.7104 -2.20118 0.461792 3.9872 -5.47523 -3.85155 29.5459 64.589 -20.5264 -27.9006 20.1766 -37.6512 98.8597 37.2456 -11.273 12.2226 -16.3959 -11.6759 -4.53598 -1.07119 23.328 -6.10893 13.7328 -16.2358 1.21309 5.22953 0.847774 23.3544 -0.615033 24.3882 29.2771 -15.1681 0.376992 0.823675 
16.835 98.7275 -3.62728 -1.97041 -13.7006 -53.1463 4.36506 3.29938 -29.0764 -9.52056 18.487 -83.4174 14.5948 -28.858 -70.4382 -3.6255 -0.0967175 3.21604 -6.42823 -0.826511 31.8066 70.1725 -20.0375 -26.2058 18.5843 -38.6225 95.8672 35.9457 -10.8555 11.95 -14.6788 -12.9188 -1.99468 -0.617333 21.4659 -7.76802 13.4528 -15.5069 1.09986 3.99604 0.479006 22.2766 -2.01827 31.5424 30.1792 -15.309 -4.52982 0.222918 
18.297 98.5827 -4.93209 -2.2588 -12.5738 -55.9707 5.19542 3.96974 -28.2639 -5.47183 18.8109 -83.9104 14.6641 -27.3989 -72.2841 -4.79609 -0.567798 2.30859 -7.75723 1.80237 34.3212 75.4024 -17.8962 -24.3636 16.7823 -39.5031 93.3515 34.3138 -10.177 11.8012 -12.9142 -14.5757 0.195817 -0.300925 19.6282 -8.15416 13.2363 -14.7366 0.991248 1.75976 1.10121 21.2906 -4.61736 36.78 32.2787 -17.1343 -7.94078 -0.244589 
19.9333 98.1457 -6.17672 -2.55725 -11.1451 -58.8058 6.18602 4.70218 -27.764 -0.324429 19.2467 -83.9949 14.8253 -26.2014 -73.692 -5.86119 -0.974403 1.43559 -8.86992 3.71008 36.8714 80.2692 -14.793 -22.9322 15.0355 -40.0608 91.5416 32.3241 -9.40529 11.5084 -10.9701 -16.6405 2.46834 0.17442 18.4023 -8.97602 13.6845 -14.3373 0.981962 -1.21118 2.48285 20.5141 -6.8876 38.9281 34.2623 -18.6796 -8.18536 -0.324738 
21.7346 97.4303 -7.49179 -2.96214 -9.41394 -61.0645 7.30267 5.70397 -27.8139 5.67545 19.9826 -84.3095 14.7959 -25.3231 -74.5277 -6.73516 -1.33194 0.983834 -9.07703 4.70301 39.2675 84.8169 -11.6812 -22.1091 13.9982 -40.0998 90.7318 29.8929 -8.69739 10.7656 -8.7807 -19.0055 5.30611 1.0295 18.0183 -11.6601 14.5508 -14.434 1.0385 -4.53223 4.1608 19.9264 -6.59101 37.6228 35.3335 -18.5349 -4.74074 0.222496 
